<?xml version="1.0" encoding="utf-8" standalone="no"?>
<!DOCTYPE svg PUBLIC "-//W3C//DTD SVG 1.1//EN"
  "http://www.w3.org/Graphics/SVG/1.1/DTD/svg11.dtd">
<svg xmlns:xlink="http://www.w3.org/1999/xlink" width="180pt" height="180pt" viewBox="0 0 180 180" xmlns="http://www.w3.org/2000/svg" version="1.1">
 <metadata>
  <rdf:RDF xmlns:dc="http://purl.org/dc/elements/1.1/" xmlns:cc="http://creativecommons.org/ns#" xmlns:rdf="http://www.w3.org/1999/02/22-rdf-syntax-ns#">
   <cc:Work>
    <dc:type rdf:resource="http://purl.org/dc/dcmitype/StillImage"/>
    <dc:date>2024-09-04T09:55:46.290944</dc:date>
    <dc:format>image/svg+xml</dc:format>
    <dc:creator>
     <cc:Agent>
      <dc:title>Matplotlib v3.7.2, https://matplotlib.org/</dc:title>
     </cc:Agent>
    </dc:creator>
   </cc:Work>
  </rdf:RDF>
 </metadata>
 <defs>
  <style type="text/css">*{stroke-linejoin: round; stroke-linecap: butt}</style>
 </defs>
 <g id="figure_1">
  <g id="patch_1">
   <path d="M 0 180 
L 180 180 
L 180 0 
L 0 0 
z
" style="fill: #ffffff"/>
  </g>
  <g id="axes_1">
   <g id="patch_2">
    <path d="M 22.5 160.2 
L 162 160.2 
L 162 21.6 
L 22.5 21.6 
L 22.5 160.2 
z
" clip-path="url(#pc3df6c64d9)" style="fill: none; stroke: #ff0000; stroke-width: 2; stroke-linejoin: miter"/>
   </g>
   <g id="patch_3">
    <path d="M 74.5335 108.5022 
L 109.9665 108.5022 
L 109.9665 73.2978 
L 74.5335 73.2978 
z
" clip-path="url(#pc3df6c64d9)" style="fill: #fa8072; stroke: #000000; stroke-linejoin: miter"/>
   </g>
   <g id="patch_4">
    <path d="M 133.883773 84.73923 
L 156.915222 84.73923 
L 156.915222 61.85637 
L 133.883773 61.85637 
z
" clip-path="url(#pc3df6c64d9)" style="fill: #fa8072; stroke: #000000; stroke-linejoin: miter"/>
   </g>
   <g id="patch_5">
    <path d="M 92.25 55.6956 
L 127.683 55.6956 
L 127.683 20.4912 
L 92.25 20.4912 
z
" clip-path="url(#pc3df6c64d9)" style="fill: #fa8072; stroke: #000000; stroke-linejoin: miter"/>
   </g>
   <g id="patch_6">
    <path d="M 27.584773 155.148032 
L 50.616222 155.148032 
L 50.616222 132.265173 
L 27.584773 132.265173 
z
" clip-path="url(#pc3df6c64d9)" style="fill: #fa8072; stroke: #000000; stroke-linejoin: miter"/>
   </g>
   <g id="patch_7">
    <path d="M 30.24225 46.8945 
L 47.95875 46.8945 
L 47.95875 29.2923 
L 30.24225 29.2923 
z
" clip-path="url(#pc3df6c64d9)" style="fill: #fa8072; stroke: #000000; stroke-linejoin: miter"/>
   </g>
   <g id="patch_8">
    <path d="M 124.139699 164.829237 
L 166.659297 164.829237 
L 166.659297 122.583955 
L 124.139699 122.583955 
z
" clip-path="url(#pc3df6c64d9)" style="fill: #fa8072; stroke: #000000; stroke-linejoin: miter"/>
   </g>
   <g id="patch_9">
    <path d="M 47.95875 46.8945 
L 65.67525 46.8945 
L 65.67525 29.2923 
L 47.95875 29.2923 
z
" clip-path="url(#pc3df6c64d9)" style="fill: #fa8072; stroke: #000000; stroke-linejoin: miter"/>
   </g>
   <g id="patch_10">
    <path d="M 95.662983 160.2 
Q 95.79662 160.2 95.930258 160.2 
" style="fill: none; stroke: #000000; stroke-width: 1.5; stroke-linecap: round"/>
    <path d="M 91.662983 158.2 
L 95.662983 160.2 
L 91.662983 162.2 
" style="fill: none; stroke: #000000; stroke-width: 1.5; stroke-linecap: round"/>
    <path d="M 99.930258 162.2 
L 95.930258 160.2 
L 99.930258 158.2 
" style="fill: none; stroke: #000000; stroke-width: 1.5; stroke-linecap: round"/>
   </g>
   <g id="text_1">
    <!-- 1 mm -->
    <g transform="translate(81.282363 174.839318) scale(0.1 -0.1)">
     <defs>
      <path id="DejaVuSans-31" d="M 794 531 
L 1825 531 
L 1825 4091 
L 703 3866 
L 703 4441 
L 1819 4666 
L 2450 4666 
L 2450 531 
L 3481 531 
L 3481 0 
L 794 0 
L 794 531 
z
" transform="scale(0.015625)"/>
      <path id="DejaVuSans-20" transform="scale(0.015625)"/>
      <path id="DejaVuSans-6d" d="M 3328 2828 
Q 3544 3216 3844 3400 
Q 4144 3584 4550 3584 
Q 5097 3584 5394 3201 
Q 5691 2819 5691 2113 
L 5691 0 
L 5113 0 
L 5113 2094 
Q 5113 2597 4934 2840 
Q 4756 3084 4391 3084 
Q 3944 3084 3684 2787 
Q 3425 2491 3425 1978 
L 3425 0 
L 2847 0 
L 2847 2094 
Q 2847 2600 2669 2842 
Q 2491 3084 2119 3084 
Q 1678 3084 1418 2786 
Q 1159 2488 1159 1978 
L 1159 0 
L 581 0 
L 581 3500 
L 1159 3500 
L 1159 2956 
Q 1356 3278 1631 3431 
Q 1906 3584 2284 3584 
Q 2666 3584 2933 3390 
Q 3200 3197 3328 2828 
z
" transform="scale(0.015625)"/>
     </defs>
     <use xlink:href="#DejaVuSans-31"/>
     <use xlink:href="#DejaVuSans-20" x="63.623047"/>
     <use xlink:href="#DejaVuSans-6d" x="95.410156"/>
     <use xlink:href="#DejaVuSans-6d" x="192.822266"/>
    </g>
   </g>
  </g>
 </g>
 <defs>
  <clipPath id="pc3df6c64d9">
   <rect x="22.5" y="21.6" width="139.5" height="138.6"/>
  </clipPath>
 </defs>
</svg>
